<svg data-v-423bf9ae="" xmlns="http://www.w3.org/2000/svg" viewBox="0 0 456 90" class="iconLeft"><g data-v-423bf9ae="" id="4ca844b0-e1e5-426c-9dc5-2c465722f4fd" fill="white" transform="matrix(4.709576222757963,0,0,4.709576222757963,115.26320354406607,-4.733126073351457)"><path d="M2.44 4.31L2.44 5.67L6.06 5.67L6.06 10.67C6.06 11.93 5.26 12.75 4.06 12.75C2.86 12.75 2.04 11.93 2.04 10.67L2.04 10.36L0.53 10.36L0.53 10.63C0.53 12.70 1.97 14.13 4.06 14.13C6.15 14.13 7.59 12.70 7.59 10.63L7.59 4.31ZM14.77 7.11L14.77 8.11C14.17 7.41 13.29 6.99 12.26 6.99C10.32 6.99 8.89 8.48 8.89 10.56C8.89 12.63 10.32 14.13 12.26 14.13C13.29 14.13 14.17 13.71 14.77 13.01L14.77 14L16.20 14L16.20 7.11ZM12.56 12.88C11.28 12.88 10.36 11.91 10.36 10.56C10.36 9.21 11.28 8.23 12.56 8.23C13.85 8.23 14.77 9.21 14.77 10.56C14.77 11.91 13.85 12.88 12.56 12.88ZM19.45 12.80L23.90 8.19L23.90 7.11L17.63 7.11L17.63 8.32L22.05 8.32L17.58 12.92L17.58 14L23.93 14L23.93 12.80ZM26.81 12.80L31.26 8.19L31.26 7.11L24.99 7.11L24.99 8.32L29.41 8.32L24.95 12.92L24.95 14L31.29 14L31.29 12.80ZM36.08 4.19C33.99 4.19 32.55 5.28 32.55 7.03C32.55 10.64 38.26 8.88 38.26 11.28C38.26 12.25 37.38 12.88 36.11 12.88C34.65 12.88 33.81 12.07 33.80 10.96L32.27 10.96C32.33 12.85 33.75 14.13 36.04 14.13C38.26 14.13 39.82 13.02 39.82 11.23C39.82 7.52 34.10 9.35 34.10 6.94C34.10 6.01 34.90 5.43 36.04 5.43C37.25 5.43 38.04 6.10 38.08 7.22L39.56 7.22C39.52 5.36 38.09 4.19 36.08 4.19ZM48.09 14L45.39 10.53L48.06 7.11L46.40 7.11L44.35 9.74L42.31 7.11L40.66 7.11L43.33 10.54L40.61 14L42.28 14L44.35 11.31L46.44 14ZM52.85 6.99C51.90 6.99 51.13 7.41 50.68 8.15L50.68 7.11L49.25 7.11L49.25 14L50.68 14L50.68 9.97C50.68 8.86 51.37 8.13 52.43 8.13C53.47 8.13 54.14 8.86 54.14 9.97L54.14 14L55.58 14L55.58 9.77C55.58 8.11 54.43 6.99 52.85 6.99ZM62.73 7.11L62.73 8.09C62.13 7.41 61.25 6.99 60.21 6.99C58.27 6.99 56.85 8.43 56.85 10.40C56.85 12.39 58.27 13.83 60.21 13.83C61.25 13.83 62.13 13.41 62.73 12.73L62.73 13.64C62.73 14.87 61.81 15.78 60.55 15.78C59.63 15.78 58.76 15.23 58.52 14.49L57.18 14.48C57.47 15.90 58.91 16.93 60.61 16.93C62.68 16.93 64.16 15.51 64.16 13.55L64.16 7.11ZM60.52 12.73C59.25 12.73 58.32 11.76 58.32 10.42C58.32 9.06 59.25 8.09 60.52 8.09C61.81 8.09 62.73 9.06 62.73 10.42C62.73 11.76 61.81 12.73 60.52 12.73ZM69.52 6.99C68.57 6.99 67.80 7.41 67.35 8.15L67.35 4.31L65.93 4.31L65.93 14L67.35 14L67.35 9.97C67.35 8.86 68.04 8.13 69.10 8.13C70.14 8.13 70.81 8.86 70.81 9.97L70.81 14L72.25 14L72.25 9.77C72.25 8.11 71.11 6.99 69.52 6.99Z"></path></g><g data-v-423bf9ae="" id="fae20c92-ac76-41f2-9585-15e5d02fe832" transform="matrix(1.2190497606487611,0,0,1.2190497606487611,-10.938267901963627,-14.703073870927923)" stroke="none" fill="white"><path d="M55.894 49.046v1.992c0 2.509 1.142 3.675 3.328 3.675h2.757c2.606 0 4.379 2.119 4.379 4.375v2.318c0 2.509-1.137 4.021-3.795 4.021h-3.196c-2.796 0-4.253-1.278-4.253-3.889V59.38c0-2.059-1.479-3.41-3.281-3.41h-4.759c-2.38 0-2.959 1.608-2.959 3.41v4.249c0 2.252 1.351 3.024 3.088 3.024h2.931c3.31 0 4.9 1.452 4.9 3.77v1.601c0 2.634 1.498 3.632 3.881 3.632h4.915c2.433 0 3.622-1.284 3.622-3.479v-1.796c0-3.023 1.676-3.988 4.893-3.988h3.384c1.866 0 2.725-1.158 2.725-2.702v-6.24c0-2.058-1.158-3.023-3.409-3.023h-4.054c-2.419 0-4.588-1.829-4.588-5.21v-1.992c0-2.509-1.142-3.675-3.329-3.675h-2.757c-2.606 0-4.379-2.118-4.379-4.374v-2.318c0-2.509 1.138-4.021 3.796-4.021h3.195c2.796 0 4.254 1.278 4.254 3.889v2.158c0 2.059 1.479 3.409 3.281 3.409h4.758c2.38 0 2.959-1.608 2.959-3.409v-4.249c0-2.251-1.351-3.023-3.088-3.023h-2.931c-3.31 0-4.9-1.452-4.9-3.77v-1.516c0-2.633-1.425-3.717-3.808-3.717h-4.988c-2.433 0-3.622 1.284-3.622 3.48v1.795c0 3.023-1.676 3.988-4.893 3.988h-3.385c-1.865 0-2.724 1.158-2.724 2.702v6.24c0 2.059 1.157 3.024 3.41 3.024h4.052c2.421-.003 4.59 1.826 4.59 5.207M86.07 54.482a3.52 3.52 0 0 0 3.521-3.521v-2.688a3.52 3.52 0 0 0-3.521-3.522h-2.688a3.52 3.52 0 0 0-3.521 3.522v2.688a3.52 3.52 0 0 0 3.521 3.521z"></path><path d="M36.547 31.871h3.008c2.251 0 3.409-.965 3.409-3.023v-1.974c.113-3.194 2.224-4.658 4.578-4.658h3.008c2.253 0 3.41-.965 3.41-3.023v-4.151c0-1.544-.858-2.702-2.724-2.702h-5.695c-1.846 0-2.631.855-2.631 2.782v2.434c0 2.195-1.681 4.253-4.171 4.364h-4.194c-1.845 0-2.631.855-2.631 2.782v2.508c0 2.256-1.771 4.375-4.379 4.375h-2.757c-2.188 0-3.329 1.165-3.329 3.674v3.071c0 3.381-2.168 5.21-4.588 5.21h-4.054c-2.251 0-3.409.965-3.409 3.023v6.766c0 2.059 1.158 3.023 3.409 3.023h4.054c2.42 0 4.588 1.049 4.588 4.431v2.412c0 2.509 1.142 3.674 3.329 3.674h2.757c2.607 0 4.379 2.119 4.379 4.375v2.539c0 1.927.786 2.782 2.631 2.782h4.213l-.021.024c2.491.11 4.171 2.169 4.171 4.364v2.433c0 1.927.785 2.782 2.631 2.782h5.694c1.866 0 2.725-1.158 2.725-2.702v-4.151c0-2.059-1.158-3.024-3.409-3.024H47.54c-2.348 0-4.453-1.457-4.576-4.633v-2.053c0-2.059-1.158-3.023-3.409-3.023h-3.008c-2.421 0-4.59-1.828-4.59-5.209V59.74c0-2.509 1.143-3.674 3.33-3.674h2.756c2.607 0 4.38-2.119 4.38-4.375V48.2c0-2.256-1.772-4.375-4.38-4.375h-2.756c-2.188 0-3.33-1.166-3.33-3.674v-3.36c0-3.38 2.169-4.92 4.59-4.92"></path></g></svg>