<svg data-v-423bf9ae="" xmlns="http://www.w3.org/2000/svg" viewBox="0 0 337.77081244519553 60" class="font"><g data-v-423bf9ae="" id="4df1a453-ec80-4638-b8ee-34606999bc77" fill="white" transform="matrix(4.709576222757963,0,0,4.709576222757963,-2.496073799683927,-19.733124166002824)"><path d="M2.44 4.31L2.44 5.67L6.06 5.67L6.06 10.67C6.06 11.93 5.26 12.75 4.06 12.75C2.86 12.75 2.04 11.93 2.04 10.67L2.04 10.36L0.53 10.36L0.53 10.63C0.53 12.70 1.97 14.13 4.06 14.13C6.15 14.13 7.59 12.70 7.59 10.63L7.59 4.31ZM14.77 7.11L14.77 8.11C14.17 7.41 13.29 6.99 12.26 6.99C10.32 6.99 8.89 8.48 8.89 10.56C8.89 12.63 10.32 14.13 12.26 14.13C13.29 14.13 14.17 13.71 14.77 13.01L14.77 14L16.20 14L16.20 7.11ZM12.56 12.88C11.28 12.88 10.36 11.91 10.36 10.56C10.36 9.21 11.28 8.23 12.56 8.23C13.85 8.23 14.77 9.21 14.77 10.56C14.77 11.91 13.85 12.88 12.56 12.88ZM19.45 12.80L23.90 8.19L23.90 7.11L17.63 7.11L17.63 8.32L22.05 8.32L17.58 12.92L17.58 14L23.93 14L23.93 12.80ZM26.81 12.80L31.26 8.19L31.26 7.11L24.99 7.11L24.99 8.32L29.41 8.32L24.95 12.92L24.95 14L31.29 14L31.29 12.80ZM36.08 4.19C33.99 4.19 32.55 5.28 32.55 7.03C32.55 10.64 38.26 8.88 38.26 11.28C38.26 12.25 37.38 12.88 36.11 12.88C34.65 12.88 33.81 12.07 33.80 10.96L32.27 10.96C32.33 12.85 33.75 14.13 36.04 14.13C38.26 14.13 39.82 13.02 39.82 11.23C39.82 7.52 34.10 9.35 34.10 6.94C34.10 6.01 34.90 5.43 36.04 5.43C37.25 5.43 38.04 6.10 38.08 7.22L39.56 7.22C39.52 5.36 38.09 4.19 36.08 4.19ZM48.09 14L45.39 10.53L48.06 7.11L46.40 7.11L44.35 9.74L42.31 7.11L40.66 7.11L43.33 10.54L40.61 14L42.28 14L44.35 11.31L46.44 14ZM52.85 6.99C51.90 6.99 51.13 7.41 50.68 8.15L50.68 7.11L49.25 7.11L49.25 14L50.68 14L50.68 9.97C50.68 8.86 51.37 8.13 52.43 8.13C53.47 8.13 54.14 8.86 54.14 9.97L54.14 14L55.58 14L55.58 9.77C55.58 8.11 54.43 6.99 52.85 6.99ZM62.73 7.11L62.73 8.09C62.13 7.41 61.25 6.99 60.21 6.99C58.27 6.99 56.85 8.43 56.85 10.40C56.85 12.39 58.27 13.83 60.21 13.83C61.25 13.83 62.13 13.41 62.73 12.73L62.73 13.64C62.73 14.87 61.81 15.78 60.55 15.78C59.63 15.78 58.76 15.23 58.52 14.49L57.18 14.48C57.47 15.90 58.91 16.93 60.61 16.93C62.68 16.93 64.16 15.51 64.16 13.55L64.16 7.11ZM60.52 12.73C59.25 12.73 58.32 11.76 58.32 10.42C58.32 9.06 59.25 8.09 60.52 8.09C61.81 8.09 62.73 9.06 62.73 10.42C62.73 11.76 61.81 12.73 60.52 12.73ZM69.52 6.99C68.57 6.99 67.80 7.41 67.35 8.15L67.35 4.31L65.93 4.31L65.93 14L67.35 14L67.35 9.97C67.35 8.86 68.04 8.13 69.10 8.13C70.14 8.13 70.81 8.86 70.81 9.97L70.81 14L72.25 14L72.25 9.77C72.25 8.11 71.11 6.99 69.52 6.99Z"></path></g></svg>